# xmcd
#
# Track frame offsets: 
#        150
#        22117
#        55507
#        71501
#        83760
#        94983
#        128963
#        147197
#        164835
#        187587
#
# Disc length: 2671 seconds
#
# Revision: 2
# Processed by: cddbd v1.5.2PL0 Copyright (c) Steve Scherf et al.
# Submitted via: ExactAudioCopy v0.99pb5
#
DISCID=840a6d0a
DTITLE=B.B. King - Live At The Apollo
DYEAR=1991
DGENRE=
TTITLE0=When Love Comes To Town
TTITLE1=Sweet Sixteen
TTITLE2=The Thrill Is Gone
TTITLE3=Ain't Nobody's Bizness
TTITLE4=Paying The Cost To Be The Boss
TTITLE5=All Over Again
TTITLE6=Nightlife
TTITLE7=Since I Met You Baby
TTITLE8=Guess Who
TTITLE9=Peace To The World
EXTD=
EXTT0=
EXTT1=
EXTT2=
EXTT3=
EXTT4=
EXTT5=
EXTT6=
EXTT7=
EXTT8=
EXTT9=
PLAYORDER=
